<?xml version="1.0" encoding="UTF-8" standalone="no"?>
<svg
   version="1.1"
   width="467"
   height="600"
   id="svg16"
   sodipodi:docname="Shadowrun-logo-white.svg"
   inkscape:version="1.3.2 (091e20e, 2023-11-25, custom)"
   xmlns:inkscape="http://www.inkscape.org/namespaces/inkscape"
   xmlns:sodipodi="http://sodipodi.sourceforge.net/DTD/sodipodi-0.dtd"
   xmlns="http://www.w3.org/2000/svg"
   xmlns:svg="http://www.w3.org/2000/svg">
  <defs
     id="defs16" />
  <sodipodi:namedview
     id="namedview16"
     pagecolor="#505050"
     bordercolor="#eeeeee"
     borderopacity="1"
     inkscape:showpageshadow="0"
     inkscape:pageopacity="0"
     inkscape:pagecheckerboard="0"
     inkscape:deskcolor="#505050"
     inkscape:zoom="1.355"
     inkscape:cx="233.21033"
     inkscape:cy="300"
     inkscape:window-width="2560"
     inkscape:window-height="1009"
     inkscape:window-x="-8"
     inkscape:window-y="-8"
     inkscape:window-maximized="1"
     inkscape:current-layer="svg16" />
  <path
     d="M0 0 C2.64 0 5.28 0 8 0 C8.38333496 0.68102783 8.76666992 1.36205566 9.16162109 2.0637207 C10.89820594 5.14732933 12.63658158 8.22992473 14.375 11.3125 C14.97828125 12.38435547 15.5815625 13.45621094 16.203125 14.56054688 C17.07324219 16.10258789 17.07324219 16.10258789 17.9609375 17.67578125 C18.49509277 18.62364502 19.02924805 19.57150879 19.57958984 20.5480957 C20.65498717 22.40444072 21.80997786 24.21496679 23 26 C23 17.75 23 9.5 23 1 C32 1 32 1 34.75 2.7265625 C38.10036322 7.60087565 39.98208197 12.83885169 42 18.375 C42.65137939 20.11825562 42.65137939 20.11825562 43.31591797 21.89672852 C52 45.29161292 52 45.29161292 52 50 C52.60658447 50.16943115 53.21316895 50.3388623 53.83813477 50.51342773 C60.06517174 52.30907854 65.99334997 54.48728792 71.9375 57.0625 C73.29548706 57.65067505 73.29548706 57.65067505 74.6809082 58.25073242 C95.0429349 67.21087532 114.22833983 78.28473765 131 93 C131.87140625 93.76183594 132.7428125 94.52367188 133.640625 95.30859375 C141.32133244 102.12694631 148.31765399 109.03456482 154.5 117.25 C155.06388428 117.99580322 155.62776855 118.74160645 156.20874023 119.51000977 C166.34667859 133.03554234 174.2652403 145.56780031 173 163 C171.00549822 174.49373906 164.03332388 182.05470672 155 189 C147.22760291 194 147.22760291 194 144 194 C144.04125 192.865625 144.0825 191.73125 144.125 190.5625 C144.04797493 179.60568442 139.98715837 171.03933596 132.5625 163 C107.78759089 139.80844974 72.41079705 131.45123473 40 126 C36.47112494 130.05225877 34.15130254 134.27519498 31.8125 139.0625 C31.45736328 139.76955078 31.10222656 140.47660156 30.73632812 141.20507812 C29.11897522 144.47354273 27.85030418 147.44627229 27 151 C28.21550537 151.39638672 29.43101074 151.79277344 30.68334961 152.20117188 C36.86000778 154.2612867 42.95969786 156.52379902 49.06640625 158.78125 C50.29987289 159.23600708 51.53333954 159.69076416 52.80418396 160.15930176 C56.06148743 161.36026083 59.31815891 162.56292464 62.57470703 163.76593018 C65.22070847 164.74306906 67.86715511 165.71899866 70.51362705 166.69486237 C84.46382712 171.83895704 84.46382712 171.83895704 90.14382935 173.94311523 C91.92518661 174.6022808 93.70762186 175.25854931 95.4916687 175.91040039 C103.00426966 178.67378277 103.00426966 178.67378277 105 182 C105.32003768 185.69110124 105.22931203 189.30552843 105 193 C101.08667869 194.30444044 99.83958681 193.34876064 96.08203125 191.76953125 C89.69991732 189.21227509 83.35425973 187.33561745 76.6875 185.6875 C75.53652832 185.3975415 74.38555664 185.10758301 73.19970703 184.80883789 C70.73755822 184.18926465 68.27464658 183.57271601 65.81103516 182.95898438 C62.61518491 182.15480117 59.42523047 181.33169033 56.23782349 180.49476624 C41.72440229 176.68598667 27.20769685 173.289337 12.4375 170.625 C11.76652283 170.50357635 11.09554565 170.38215271 10.40423584 170.25704956 C-3.38556891 167.78366309 -17.02428571 165.61273775 -31.0625 165.6875 C-32.18720703 165.69313965 -33.31191406 165.6987793 -34.47070312 165.70458984 C-46.70709634 165.88328789 -58.12990489 167.00348459 -68 175 C-72.11727609 179.5454728 -73.5195534 184.50878924 -73.3828125 190.53515625 C-72.44330328 196.58444523 -68.94056276 200.47879614 -64.234375 204.16796875 C-55.04375663 210.20072687 -45.18434683 213.5088108 -34.5625 216.09765625 C-3.73801492 223.62841699 28.27220299 239.79877397 52 261 C52.9590625 261.83917969 53.918125 262.67835938 54.90625 263.54296875 C58.00796069 266.29005471 61.02208213 269.1195132 64 272 C64.48581543 272.46825195 64.97163086 272.93650391 65.47216797 273.41894531 C94.09161278 301.47422466 108.7906205 340.06007737 109.28759766 379.65307617 C109.39458695 392.96204218 109.10948011 405.99282435 106 419 C105.83371094 419.70543945 105.66742188 420.41087891 105.49609375 421.13769531 C97.37299852 454.27691531 79.00840583 481.57533874 52 502 C50.72962891 502.96292969 50.72962891 502.96292969 49.43359375 503.9453125 C18.11986339 526.72856809 -21.28140611 536.86704463 -59.68164062 530.92382812 C-86.18855429 526.13759063 -112.85702046 515.72087957 -132.69921875 497.14453125 C-134.76437744 495.21962103 -136.88735149 493.42260794 -139.0625 491.625 C-159.77563056 473.4439355 -174.12368147 444.24042843 -177 417 C-178.72197946 385.61448765 -172.63238835 356.80453269 -151.5625 332.6875 C-133.84119212 313.98508165 -112.47669734 304.07909203 -86.6640625 302.83984375 C-69.87482461 302.44820838 -51.94622794 304.55225684 -36 310 C-35.67 310.66 -35.34 311.32 -35 312 C-35.98057373 312.09704224 -35.98057373 312.09704224 -36.98095703 312.19604492 C-55.48661887 314.06245052 -55.48661887 314.06245052 -73 320 C-73.95648438 320.44214844 -74.91296875 320.88429688 -75.8984375 321.33984375 C-94.94126009 330.96793753 -107.94193379 347.31895382 -114.77734375 367.23828125 C-121.02419544 386.45782815 -119.29207606 407.37919267 -110.328125 425.49609375 C-109.88984375 426.32238281 -109.4515625 427.14867187 -109 428 C-108.37351563 429.22396484 -108.37351563 429.22396484 -107.734375 430.47265625 C-98.16327883 447.82714385 -81.61119367 460.09142492 -62.83203125 465.99609375 C-56.94064486 467.55667646 -51.08440694 468.64016948 -45 469 C-44.28070313 469.05285156 -43.56140625 469.10570312 -42.8203125 469.16015625 C-21.5137853 469.98515646 -2.5553792 461.34225607 13.48828125 447.91796875 C27.48490382 434.88829765 36.70882119 415.30888039 37.43359375 396.23046875 C37.45681228 393.88292696 37.45761008 391.53507048 37.4375 389.1875 C37.43065186 387.95644531 37.42380371 386.72539062 37.41674805 385.45703125 C37.25616822 376.35389918 36.27259545 368.55411089 33 360 C32.66097656 358.9996875 32.32195312 357.999375 31.97265625 356.96875 C23.22709504 333.31527483 3.04852873 314.8458555 -19.375 304.1875 C-38.47636035 295.59138144 -58.80045472 290.60710146 -79.80078125 291.04296875 C-81.68553598 291.06538868 -83.57030242 291.08684055 -85.45507812 291.10742188 C-88.36597895 291.14412105 -91.27625016 291.18675179 -94.18676758 291.24682617 C-120.99789012 291.77199485 -147.43152734 287.13163096 -167.76171875 268.29296875 C-169.90851809 266.09371707 -171.74729851 263.80371999 -173.625 261.375 C-176.26988794 258.28517764 -176.56894666 258.04171484 -180.875 257.625 C-191.39957999 260.23574852 -198.03997044 268.62039987 -203.375 277.4375 C-204.25669248 278.95446322 -205.1341168 280.47395763 -206 282 C-209.0172662 279.11278838 -211.77075097 276.03794011 -213 272 C-212.77875709 265.20046799 -210.49832309 259.90921876 -207.625 253.8125 C-207.22539062 252.93658203 -206.82578125 252.06066406 -206.4140625 251.15820312 C-204.47973382 246.96185522 -202.50084922 242.89648443 -200 239 C-207.33696593 239.12027813 -211.50748921 241.15308418 -217.51953125 245.30859375 C-219.63522941 246.75126667 -221.68264059 247.92504773 -224 249 C-225.98730464 246.29726569 -227 244.6470303 -227 241.25 C-223.45535639 229.72990826 -215.21485063 219.39357375 -204.875 213.4375 C-201.51104788 210.93937522 -200.17961344 209.13834845 -199.52294922 204.9765625 C-199.03805409 196.97082241 -199.40279059 188.99091249 -200 181 C-213.77351549 181.79607838 -222.42980021 187.65155537 -231.671875 197.84375 C-232.81314366 199.2030138 -233.91277723 200.59713191 -235 202 C-235.66 201.67 -236.32 201.34 -237 201 C-237.76567045 192.96046032 -235.95524155 189.22214866 -231 183 C-230.32324219 182.12214844 -229.64648438 181.24429688 -228.94921875 180.33984375 C-222.28005164 171.91750305 -215.21297049 163.6695203 -206 158 C-205.67 157.34 -205.34 156.68 -205 156 C-213.52259649 155.65500734 -221.0968565 156.14416893 -229.35546875 158.34375 C-232 159 -232 159 -235 159 C-234.65963908 156.15069283 -234.36597387 154.42170593 -232.4609375 152.2265625 C-220.82496395 143.29257532 -207.82153638 139.03221576 -193.84765625 135.26171875 C-193.03039062 135.03718018 -192.213125 134.8126416 -191.37109375 134.58129883 C-189 134 -189 134 -186.73828125 133.69018555 C-183.78432808 133.23786147 -181.56984461 132.75895572 -179.72583008 130.30297852 C-178.61486233 128.05226416 -177.72691326 125.79820641 -176.875 123.4375 C-176.22253475 121.80082399 -175.56371911 120.16666465 -174.8984375 118.53515625 C-174.58229492 117.75156738 -174.26615234 116.96797852 -173.94042969 116.16064453 C-172.16626866 112.08449576 -169.70688154 108.506642 -167 105 C-171.28254891 102.7195412 -175.61604826 101.68497396 -180.3125 100.5625 C-181.22153076 100.34440674 -182.13056152 100.12631348 -183.06713867 99.90161133 C-193.59973911 97.48189934 -204.268567 96.18321306 -215 95 C-212.3479179 89.52747248 -209.08614576 85.43331636 -204 82 C-198.64749417 80.55322813 -193.52669054 80.19598193 -188 80 C-187.08863281 79.94457031 -186.17726562 79.88914062 -185.23828125 79.83203125 C-178.00796621 79.58106164 -168.50543636 79.74728182 -162 83 C-165.17019375 73.4163728 -168.41508666 65.80249419 -176.9375 60 C-177.618125 59.67 -178.29875 59.34 -179 59 C-177.54618483 55.60776459 -175.82194295 53.38515526 -173 51 C-156.32778517 46.85214687 -132.66503518 61.21609788 -118.87915039 69.23339844 C-117.94897095 69.61286621 -117.94897095 69.61286621 -117 70 C-113.95317438 68.66277353 -113.95317438 68.66277353 -110.75 66.5 C-103.20981471 61.84551449 -95.35566356 58.86479893 -87 56 C-96.94690842 43.93511869 -106.86091189 33.45564689 -119.75610352 24.46484375 C-123.47785973 21.86799005 -126.93790829 19.38958815 -130 16 C-127.33995182 14.88761622 -124.73247237 13.90314432 -122 13 C-121.34902344 12.76796875 -120.69804687 12.5359375 -120.02734375 12.296875 C-111.72042056 10.31217659 -103.86270516 15.86003646 -97 20 C-93.18533634 22.50052115 -89.56181288 25.15299348 -86 28 C-85.04287109 28.74636719 -85.04287109 28.74636719 -84.06640625 29.5078125 C-81.53598105 31.53457993 -79.81577521 33.27633719 -78 36 C-79.91159623 25.21424566 -82.3195746 15.21010991 -90 7 C-90.99 6.505 -90.99 6.505 -92 6 C-92 5.34 -92 4.68 -92 4 C-84.44754046 1.48251349 -79.10852165 3.91001554 -72.3203125 7.25 C-64.48746642 11.37837064 -57.59955661 16.13824614 -50.875 21.875 C-50.23232178 22.41415039 -49.58964355 22.95330078 -48.92749023 23.50878906 C-45.32054451 26.63365134 -42.30714663 29.78747115 -39.45703125 33.62109375 C-32.37013717 42.70463278 -32.37013717 42.70463278 -21.92382812 46.74804688 C-11.97438573 47.66239309 -1.92268325 46.93882738 8 46 C7.75765625 44.78417236 7.5153125 43.56834473 7.265625 42.31567383 C6.36629955 37.79724767 5.47323109 33.27760358 4.58203125 28.75756836 C4.19571291 26.80280404 3.80770685 24.84837247 3.41796875 22.89428711 C2.85751611 20.0827307 2.30317766 17.27002687 1.75 14.45703125 C1.57500977 13.58601273 1.40001953 12.7149942 1.21972656 11.81758118 C0.44042639 7.82550529 -0.23439561 4.0909359 0 0 Z M-57.734375 42.09375 C-59.02988281 42.31933594 -60.32539063 42.54492188 -61.66015625 42.77734375 C-63.02345037 43.01815634 -64.38673146 43.25904269 -65.75 43.5 C-67.12885232 43.74119394 -68.50775805 43.98208276 -69.88671875 44.22265625 C-73.25833902 44.81210035 -76.62923943 45.40565935 -80 46 C-78.35 51.61 -76.7 57.22 -75 63 C-71.55173285 61.62069314 -68.37009134 60.19845812 -65.0625 58.5625 C-55.51863408 54.21502469 -45.46024498 52.34924743 -35 53 C-38.32646338 48.42611286 -42.30257709 44.18360498 -47 41 C-50.77360791 41 -54.02644777 41.44323645 -57.734375 42.09375 Z M17 44 C15.22002971 48.44992574 14.78777281 50.43711531 15 55 C16.16015625 54.88140625 17.3203125 54.7628125 18.515625 54.640625 C28.22864944 53.7900847 35.91163415 53.84786423 45 58 C44.69024532 56.22868439 44.37709575 54.45796222 44.0625 52.6875 C43.88847656 51.70136719 43.71445312 50.71523437 43.53515625 49.69921875 C43.04253153 46.91810787 43.04253153 46.91810787 42 44 C33.75 44 25.5 44 17 44 Z M-49.51953125 72.07421875 C-53.33588562 77.0385003 -56 81.522645 -56 88 C-54.27892589 93.59081838 -51.17268899 98.08335404 -46 101 C-42.54348412 101.70350311 -39.16206037 101.65116236 -35.64453125 101.6015625 C-34.63756195 101.60843582 -33.63059265 101.61530914 -32.59310913 101.62239075 C-30.44365326 101.63588641 -28.29411188 101.63905678 -26.1446228 101.63278198 C-20.57758995 101.6197805 -15.01180161 101.68969006 -9.4453125 101.76171875 C-8.35681503 101.77471512 -7.26831757 101.78771149 -6.14683533 101.80110168 C7.02063928 101.99817888 20.19908089 103.03752357 33.13110352 105.62695312 C40.70724145 107.1049965 44.51155987 106.79482803 51.2890625 102.92578125 C56.10106481 99.50745684 60.11066457 95.66800629 62 90 C62.25479633 84.81914126 62.25985403 80.79089055 60 76 C57.35821146 74.33972865 57.35821146 74.33972865 53.9375 73.4375 C53.29917236 73.24188477 52.66084473 73.04626953 52.00317383 72.84472656 C33.03329915 67.32892803 14.00423316 64.81272216 -5.68359375 64.81469727 C-8.09914114 64.81252327 -10.51422121 64.79434608 -12.9296875 64.77539062 C-32.78558163 63.84103517 -32.78558163 63.84103517 -49.51953125 72.07421875 Z M-140 72 C-142.39945121 75.22893731 -144.6171716 78.58282456 -146.85644531 81.92431641 C-147.98560617 83.60359363 -149.12913437 85.2724248 -150.2734375 86.94140625 C-150.98757812 88.00488281 -151.70171875 89.06835938 -152.4375 90.1640625 C-153.09621094 91.13811035 -153.75492187 92.1121582 -154.43359375 93.11572266 C-156.46426796 96.85487246 -157.44462081 100.1406766 -156.44140625 104.3359375 C-156.00634766 105.34527344 -156.00634766 105.34527344 -155.5625 106.375 C-155.046875 107.57125 -154.53125 108.7675 -154 110 C-153.34 110 -152.68 110 -152 110 C-151.79697266 108.89205078 -151.79697266 108.89205078 -151.58984375 107.76171875 C-149.48913799 97.86198561 -145.94388768 89.24872703 -137.25 83.5 C-136.51265625 83.0771875 -135.7753125 82.654375 -135.015625 82.21875 C-133.01374328 81.00830989 -131.57646668 79.7161536 -130 78 C-131.47729175 76.99723227 -132.95688577 75.99785546 -134.4375 75 C-135.26121094 74.443125 -136.08492187 73.88625 -136.93359375 73.3125 C-138.73268729 71.91064124 -138.73268729 71.91064124 -140 72 Z M-86.6796875 85.484375 C-95.0889167 94.60145178 -100.18708033 106.04827342 -103 118 C-102.50822266 117.74831055 -102.01644531 117.49662109 -101.50976562 117.23730469 C-88.17628648 110.48390369 -75.89525722 105.9860343 -61 104 C-61.34933594 103.32453125 -61.69867188 102.6490625 -62.05859375 101.953125 C-62.51363281 101.06109375 -62.96867187 100.1690625 -63.4375 99.25 C-63.88996094 98.36828125 -64.34242188 97.4865625 -64.80859375 96.578125 C-67.08985766 91.64161948 -67.12426243 87.12808245 -67.0625 81.75 C-67.05798828 81.00492187 -67.05347656 80.25984375 -67.04882812 79.4921875 C-67.03709246 77.6614236 -67.0191585 75.83070127 -67 74 C-74.3590008 74 -81.6657169 80.73760659 -86.6796875 85.484375 Z M74 81 C73.85304688 81.76183594 73.70609375 82.52367188 73.5546875 83.30859375 C71.32713507 93.56301615 67.7053885 100.73280796 58.96875 106.78125 C56.39284724 108.37585647 53.76197185 109.75711267 51 111 C51.81156589 113.13762796 51.81156589 113.13762796 53.80078125 113.8515625 C69.25132463 118.60927259 85.59214914 117.20392543 100 110 C98.73096438 99.8666559 96.09335118 91.68718788 87.828125 85.21875 C83.35454233 82.23636155 79.43275677 80.83312351 74 81 Z M-137 93 C-143.34188594 101.89643318 -147.27106784 110.9455615 -146 122 C-144.89796916 126.33264178 -143.51173998 130.08782538 -140 133 C-136.24765841 133.99118457 -133.7969104 134.23737757 -130.0625 133.125 C-121.83209841 127.4141091 -116.52506225 119.69298088 -114 110 C-113.14194983 103.00651144 -112.83132767 95.65047033 -116.6015625 89.43359375 C-118.79583909 87.18415378 -120.91115633 86.46449761 -123.98046875 85.98046875 C-129.2513918 86.03144479 -133.22351094 89.68546679 -137 93 Z M116 97 C115.90203125 97.845625 115.8040625 98.69125 115.703125 99.5625 C114.39290635 109.50208975 112.79734549 116.31756006 104.78125 122.67578125 C103.89953125 123.33126953 103.89953125 123.33126953 103 124 C102.2678125 124.55042969 101.535625 125.10085937 100.78125 125.66796875 C100.1934375 126.10753906 99.605625 126.54710937 99 127 C99.680625 127.268125 100.36125 127.53625 101.0625 127.8125 C123.29049852 136.79828664 140.63102032 147.39922449 152.3359375 169.05859375 C153.83384249 172.01201879 153.83384249 172.01201879 156 174 C161.01765223 168.31332747 162.48462318 163.17976934 162.31640625 155.7109375 C159.96212509 135.53968907 141.93680173 117.17279543 127 105 C126.11441406 104.27296875 125.22882813 103.5459375 124.31640625 102.796875 C120.51808095 99.06838173 120.51808095 99.06838173 116 97 Z M-110 140 C-111.76897528 142.64172533 -111.76897528 142.64172533 -113 145 C-108.30291506 143.61397494 -103.6201365 142.22070145 -98.984375 140.640625 C-74.82400178 132.49643911 -52.30144004 130.20986182 -27 131 C-31.1074146 132.42676988 -35.19083111 133.5773816 -39.42578125 134.55859375 C-54.2863355 138.08556976 -68.88574014 142.02597187 -83.375 146.875 C-84.09958405 147.11556122 -84.82416809 147.35612244 -85.57070923 147.60397339 C-93.39335378 149.76105954 -93.39335378 149.76105954 -100 154 C-99.25468018 153.94465088 -98.50936035 153.88930176 -97.74145508 153.83227539 C-24.34953298 148.48790643 -24.34953298 148.48790643 9.97265625 155.4140625 C12.97696892 156.09501095 12.97696892 156.09501095 16 156 C16.11275269 154.98015015 16.11275269 154.98015015 16.2277832 153.93969727 C16.57929676 150.81274107 16.94579415 147.68770952 17.3125 144.5625 C17.43044922 143.49322266 17.54839844 142.42394531 17.66992188 141.32226562 C18.35987066 135.53731044 19.31522653 130.27071716 21.40307617 124.82006836 C22.15581778 122.84414161 22.15581778 122.84414161 22 120 C19.04222565 119.51716004 16.08385071 119.03866235 13.125 118.5625 C12.30257812 118.42779297 11.48015625 118.29308594 10.6328125 118.15429688 C9.3953125 117.95610352 9.3953125 117.95610352 8.1328125 117.75390625 C7.38918457 117.63345947 6.64555664 117.5130127 5.87939453 117.38891602 C-1.66935792 116.36931599 -9.13413669 115.83575401 -16.75 115.796875 C-18.0963855 115.78832489 -18.0963855 115.78832489 -19.4699707 115.77960205 C-21.35903777 115.77022306 -23.24812067 115.76364664 -25.13720703 115.75976562 C-27.9654752 115.75011777 -30.79299707 115.71904927 -33.62109375 115.6875 C-60.27477584 115.53188954 -90.34575442 120.31096814 -110 140 Z M-160 126 C-173.19175583 145.65830281 -184.22407634 171.79208496 -180.57421875 195.80078125 C-178.56528642 202.93680469 -173.66294486 207.71391458 -167.3125 211.3125 C-157.6042735 215.52990806 -146.5855076 215.38818707 -136.1875 215.375 C-135.52868835 215.37512085 -134.86987671 215.3752417 -134.19110107 215.37536621 C-124.20508944 215.34928753 -115.34125153 214.78628568 -106 211 C-105.21496094 210.69964844 -104.42992187 210.39929688 -103.62109375 210.08984375 C-93.63519894 205.71272477 -87.93589523 198.10527422 -83.875 188.27734375 C-82.77071437 184.14120248 -82.78123406 180.38053126 -82.875 176.125 C-82.88402344 175.34125 -82.89304687 174.5575 -82.90234375 173.75 C-82.92571937 171.83319945 -82.96158347 169.91655809 -83 168 C-83.680625 168.0721875 -84.36125 168.144375 -85.0625 168.21875 C-105.76856458 170.20124555 -124.65555138 169.60857574 -141.75 156.25 C-149.07022764 149.47136438 -153.09452441 141.09832401 -156.73828125 132.00390625 C-157.93149613 128.89778368 -157.93149613 128.89778368 -160 126 Z M-192 147 C-194.07344987 150.66903722 -194.6080263 154.35944345 -195.1875 158.5 C-195.37634766 159.54542969 -195.56519531 160.59085938 -195.75976562 161.66796875 C-196.49126623 165.85333121 -197 169.74266693 -197 174 C-194.03 174 -191.06 174 -188 174 C-186.30882412 170.14787716 -185.41067148 166.43958605 -184.625 162.3125 C-183.50917244 156.87069482 -182.01304375 151.9658368 -179.76953125 146.890625 C-178.87433569 145.03146716 -178.87433569 145.03146716 -179 143 C-183.69729321 143 -188.04578842 144.53674516 -192 147 Z M-90.25 219.125 C-106.58534669 231.94802006 -127.81074064 234.67670009 -148 233 C-154.09406558 232.14108404 -160.08757678 230.84549396 -166.05908203 229.3671875 C-168.32582342 228.87607652 -168.32582342 228.87607652 -172 229 C-170.1080562 244.92621349 -164.63442688 256.19530212 -152.0625 266.375 C-139.65459131 275.13498353 -124.59772529 275.12656638 -110 274 C-105.89628454 273.15365144 -102.69930263 271.95845433 -99 270 C-97.51802452 269.29586269 -96.03482585 268.59429715 -94.55078125 267.89453125 C-81.95913624 261.78899968 -70.46259986 254.91054529 -64 242 C-62.95799647 237.95377849 -63.33907155 234.4864655 -65.03515625 230.671875 C-69.27774325 223.72301384 -75.33217382 219.44521745 -82 215 C-86.0477761 215 -87.15483022 216.56260534 -90.25 219.125 Z M-195 219 C-194.43093823 223.22031455 -193.44043969 226.72913589 -191.71484375 230.6171875 C-191.26689453 231.63554687 -190.81894531 232.65390625 -190.35742188 233.703125 C-189.65456055 235.27320313 -189.65456055 235.27320313 -188.9375 236.875 C-188.46505859 237.94492187 -187.99261719 239.01484375 -187.50585938 240.1171875 C-186.34332699 242.7475638 -185.17455398 245.37497517 -184 248 C-180.535 247.505 -180.535 247.505 -177 247 C-178.20499283 244.26137993 -179.54958359 242.30949754 -181.4375 239.9375 C-186.56539337 232.85251124 -187.41833969 224.50624032 -187 216 C-189.60939857 216 -192.6401989 217.97026861 -195 219 Z M-50 233 C-50.31130859 234.21623047 -50.31130859 234.21623047 -50.62890625 235.45703125 C-55.0110509 251.20708254 -64.18121789 263.25419223 -78 272 C-77.67 272.99 -77.34 273.98 -77 275 C-74.41274822 276.18730047 -71.9257881 277.18753199 -69.25 278.125 C-68.53328125 278.38925781 -67.8165625 278.65351563 -67.078125 278.92578125 C-57.59605477 282.35954565 -47.3862864 283.89328026 -37.625 280.5 C-28.49176475 276.2063466 -24.11562545 267.73428171 -20.3359375 258.76171875 C-18.52175498 253.6533627 -17.61170054 249.30871743 -19 244 C-21.73481573 238.95681438 -25.66334374 236.0438258 -31 234 C-35.1419631 232.94634272 -39.04865339 232.89765097 -43.3125 232.9375 C-44.56675781 232.94652344 -45.82101563 232.95554687 -47.11328125 232.96484375 C-48.06589844 232.97644531 -49.01851562 232.98804688 -50 233 Z M-6 246 C-6.02578125 246.89460937 -6.0515625 247.78921875 -6.078125 248.7109375 C-6.6172613 260.20434308 -8.94748259 269.47165202 -17 278 C-19.02806828 279.70266926 -21.09045156 281.26430554 -23.265625 282.7734375 C-25.13453464 284.02184397 -25.13453464 284.02184397 -27 286 C-26.17761841 286.31638428 -26.17761841 286.31638428 -25.33862305 286.63916016 C-11.41732487 292.02305535 1.47981079 297.28611223 13 307 C13.80179688 307.64453125 14.60359375 308.2890625 15.4296875 308.953125 C21.77449846 314.28988188 26.34856093 320.25183701 30.96875 327.05859375 C32.84660058 329.96662811 32.84660058 329.96662811 35 332 C39.60184875 321.99598097 39.88478421 313.02556401 37 302.5 C36.71382813 301.40945313 36.71382813 301.40945313 36.421875 300.296875 C35.95662755 298.52893469 35.47956407 296.76411067 35 295 C45.24793887 293.04801164 55.31839027 292.92353275 65 297 C62.55121116 291.42995699 58.12056202 287.37925201 54 283 C53.14792969 282.09378906 52.29585938 281.18757813 51.41796875 280.25390625 C36.21031639 264.55640272 15.88438979 249.94636537 -6 246 Z M54 310 C53.7525 310.886875 53.505 311.77375 53.25 312.6875 C53.064375 313.32558594 52.87875 313.96367187 52.6875 314.62109375 C52.17314955 316.4008632 51.67594537 318.1856037 51.1875 319.97265625 C48.73513463 328.54571685 45.7928422 337.83201865 39 344 C40.13067736 347.80318748 41.60561914 351.21668252 43.375 354.75 C49.17067843 367.3873225 50.62531885 381.2492017 51 395 C64.46000947 387.28231539 70.48803835 374.24282826 75 360 C77.04286279 363.2909257 79.08406292 366.58287975 81.125 369.875 C81.69476563 370.7928125 82.26453125 371.710625 82.8515625 372.65625 C86.24624107 378.13402679 89.58235729 383.63806915 92.83154297 389.20361328 C93.4099292 390.09282471 93.4099292 390.09282471 94 391 C94.33 391 94.66 391 95 391 C96.36949405 369.39242729 92.05396201 338.00232436 79 320 C73.24728469 314.4841612 64.18109038 310.18606126 56.171875 309.8984375 C55.09679687 309.94871094 55.09679687 309.94871094 54 310 Z M-130 327 C-130 327.66 -130 328.32 -130 329 C-129.33613281 329.17015625 -128.67226562 329.3403125 -127.98828125 329.515625 C-122.76577339 330.94895562 -119.08604309 332.29702345 -115 336 C-114.34 336 -113.68 336 -113 336 C-109.36366461 332.52001493 -109.36366461 332.52001493 -108 328 C-107.01 327.67 -106.02 327.34 -105 327 C-103.85218234 325.85218234 -102.70753408 324.70095687 -101.58203125 323.53125 C-96.67894743 318.78554912 -91.26016038 314.72878786 -85 312 C-85 311.67 -85 311.34 -85 311 C-100.20840582 309.93274345 -118.72016454 316.62773751 -130 327 Z M-150 347 C-151.51792183 348.83574466 -153.03861475 350.66920266 -154.5625 352.5 C-157.21216409 355.40615474 -157.21216409 355.40615474 -158 359 C-156.64068359 358.94779297 -156.64068359 358.94779297 -155.25390625 358.89453125 C-143.76174295 358.63914984 -137.10914996 360.24221845 -128 367 C-126.78833861 364.13460275 -125.61021616 361.25653115 -124.4375 358.375 C-124.09525391 357.56675781 -123.75300781 356.75851562 -123.40039062 355.92578125 C-121.52634256 351.26905575 -120.33456825 347.97378942 -122 343 C-126.01271717 338.36994173 -128.52358631 336.78296454 -134.5625 336.3125 C-142.66138222 336.38023259 -145.48828602 340.84538833 -150 347 Z M-161 372 C-165.73220564 381.72817356 -167.41297629 393.26261653 -167 404 C-166.34 403.731875 -165.68 403.46375 -165 403.1875 C-163.515 402.5996875 -163.515 402.5996875 -162 402 C-161.37222656 401.74734375 -160.74445313 401.4946875 -160.09765625 401.234375 C-159.42605469 400.97140625 -158.75445312 400.7084375 -158.0625 400.4375 C-157.43472656 400.18871094 -156.80695313 399.93992187 -156.16015625 399.68359375 C-150.67512204 397.94782343 -145.31197254 397.87065493 -139.625 397.9375 C-138.88894531 397.94201172 -138.15289062 397.94652344 -137.39453125 397.95117188 C-135.59631842 397.96284858 -133.79814803 397.98077989 -132 398 C-129.96253993 386.80020158 -129.96253993 386.80020158 -132.65625 376.28515625 C-135.02895173 374.42843589 -137.23398745 373.18543395 -140 372 C-140.70511719 371.65066406 -141.41023438 371.30132812 -142.13671875 370.94140625 C-148.49472481 368.13089276 -155.35221223 367.48176978 -161 372 Z M75 388 C73.54597658 389.6376272 72.16151322 391.33734196 70.8125 393.0625 C65.43636777 399.73779296 61.09700532 404.92637513 53.4375 408.875 C47.36316141 412.56417031 46.20390109 416.69932096 44.27050781 423.16967773 C40.40036771 435.84588768 32.37409885 446.75934028 23 456 C22.31679688 456.69351563 21.63359375 457.38703125 20.9296875 458.1015625 C5.73392203 472.62445274 -14.00731895 477.85042458 -34 482 C-32.93520041 494.90286557 -29.65993527 502.98807911 -20 512 C-14.95076739 516.17605705 -10.71519524 519.57083339 -4 520 C27.18105542 513.37545343 56.61260486 491.10761785 73.86376953 464.76025391 C74.42620361 463.88892822 74.42620361 463.88892822 75 463 C75.71027344 461.90042969 76.42054688 460.80085938 77.15234375 459.66796875 C85.18007637 446.43222533 94.44452666 427.73989005 91 412 C88.23166245 402.83841652 83.38629808 395.07636959 77 388 C76.34 388 75.68 388 75 388 Z M-164.9453125 415.1328125 C-167.83092383 420.24141331 -165.47696874 426.1527921 -164.109375 431.44921875 C-161.03126086 441.64818145 -156.20303603 450.73882258 -151 460 C-150.34 460 -149.68 460 -149 460 C-148.38125 458.65808594 -148.38125 458.65808594 -147.75 457.2890625 C-142.00398824 445.12709283 -135.65380912 436.21198843 -124 429 C-125.04973832 423.75130838 -126.31846704 418.62307698 -127.875 413.5 C-128.18179688 412.4790625 -128.48859375 411.458125 -128.8046875 410.40625 C-129.73945179 407.89248482 -129.73945179 407.89248482 -131.79296875 407.17578125 C-132.52128906 407.11777344 -133.24960938 407.05976563 -134 407 C-135.26650391 406.88205078 -135.26650391 406.88205078 -136.55859375 406.76171875 C-146.22387863 406.51254587 -157.75945818 407.94695818 -164.9453125 415.1328125 Z M-128.8046875 444.765625 C-132.82450479 449.14774342 -135.75236589 453.50002897 -138 459 C-138.31066406 459.75667969 -138.62132812 460.51335937 -138.94140625 461.29296875 C-140.70191544 466.00608079 -141.31536352 468.99646034 -140 474 C-137.71098451 477.64187502 -134.84962286 480.7841404 -132 484 C-131.11828125 485.00740234 -131.11828125 485.00740234 -130.21875 486.03515625 C-126.05629447 490.48058573 -121.37537878 494.1305736 -116.5 497.75 C-115.57465454 498.44017212 -115.57465454 498.44017212 -114.63061523 499.14428711 C-110.28686084 502.29186043 -105.84856199 504.70444189 -101 507 C-100.96036133 506.37246826 -100.92072266 505.74493652 -100.87988281 505.09838867 C-99.95581648 491.08550992 -98.31639056 477.65193783 -95 464 C-95.61746094 463.53851563 -96.23492187 463.07703125 -96.87109375 462.6015625 C-105.45785603 455.98831788 -113.10641488 448.78717023 -118 439 C-122.72940254 439 -125.55176254 441.58310967 -128.8046875 444.765625 Z M-86 471 C-91.02000694 480.81183175 -91.62172668 492.14938907 -91 503 C-90.96648437 503.93457031 -90.93296875 504.86914062 -90.8984375 505.83203125 C-90.61820074 508.56634137 -90.2522458 510.55137067 -89 513 C-85.94742362 515.27804207 -82.65470396 516.06100805 -79 517 C-77.83210937 517.34546875 -76.66421875 517.6909375 -75.4609375 518.046875 C-62.53614974 521.7396715 -50.14334846 523.31628051 -36.6875 523.125 C-35.45837891 523.11597656 -34.22925781 523.10695313 -32.96289062 523.09765625 C-29.97504456 523.07440453 -26.98763516 523.04173123 -24 523 C-26.50514475 520.46495084 -29.02615456 518.15636164 -31.8125 515.9375 C-42.27936368 506.77899428 -45.44315419 495.28980196 -47 482 C-48.0415625 481.85304688 -49.083125 481.70609375 -50.15625 481.5546875 C-59.42728402 480.14120083 -67.81877481 477.91907604 -76.51171875 474.40234375 C-79.6458202 473.14238583 -82.78492506 472.03218228 -86 471 Z "
     fill="#221E1F"
     transform="translate(267,33)"
     id="path1"
     style="fill:#ffffff" />
  <path
     d="M0 0 C8.9965446 -0.06346596 17.99211929 -0.06939462 26.98864746 -0.01245117 C28.94066209 -0.00036733 30.89269493 0.00865342 32.84472656 0.01757812 C36.39762831 0.0457534 39.94786223 0.11034604 43.5 0.1875 C44.58394043 0.19322021 45.66788086 0.19894043 46.78466797 0.20483398 C54.16677448 0.41751878 54.16677448 0.41751878 57.93359375 3.05078125 C60.41855542 6.59737116 62.57562498 10.15378307 64.5625 14 C64.97870605 14.79656006 65.39491211 15.59312012 65.82373047 16.41381836 C69.8278315 24.29031625 73.25294246 32.40115612 76.625 40.5625 C76.8947464 41.21436279 77.1644928 41.86622559 77.44241333 42.5378418 C82 53.59832439 82 53.59832439 82 56 C82.87744873 56.27908203 83.75489746 56.55816406 84.65893555 56.84570312 C116.50228706 67.84719132 146.7229823 88.91578374 171 112 C172.05960937 112.96292969 172.05960937 112.96292969 173.140625 113.9453125 C189.72465117 129.51811757 200.70717461 150.93082554 202.25 173.6875 C202.02302492 186.72595727 196.36077321 198.39288045 187.49609375 207.6796875 C175.28569132 219.03020244 158.93728998 223.25725962 142.5625 223.0625 C141.83095703 223.05798828 141.09941406 223.05347656 140.34570312 223.04882812 C138.56376581 223.03718148 136.78187137 223.01925191 135 223 C136.79106809 218.98800747 139.3914221 216.20252518 142.34375 213 C145.9543988 208.63997126 146.45131802 205.14160506 146.3046875 199.5859375 C145.36482225 191.60913245 140.08428629 185.85418175 134 181 C129.47606823 178.03525981 124.80305492 175.47940794 120 173 C118.91460937 172.42507812 117.82921875 171.85015625 116.7109375 171.2578125 C101.44205816 163.64092327 80.21761184 154 63 154 C61.515 157.465 61.515 157.465 60 161 C60.70041916 161.12231491 61.40083832 161.24462982 62.1224823 161.37065125 C65.21231924 162.04643685 68.06352189 163.00047597 71.0402832 164.06958008 C72.23534988 164.49705032 73.43041656 164.92452057 74.66169739 165.36494446 C75.95813889 165.83291791 77.25449815 166.30111922 78.55078125 166.76953125 C79.89204503 167.251932 81.23336989 167.73416294 82.57475281 168.2162323 C85.3839571 169.2268018 88.19217046 170.24006892 90.99975586 171.25512695 C94.57834287 172.54858847 98.15963728 173.83435871 101.74177265 175.11795521 C104.51331337 176.11225691 107.28316794 177.11119043 110.05257225 178.1114254 C111.37116838 178.58694527 112.69031278 179.06094789 114.01003456 179.53333473 C132.85775687 186.28663531 132.85775687 186.28663531 136 191 C137.90232487 201.94257669 133.90747618 211.45151693 129 221 C125.97767759 222.51116121 124.20147249 221.29168221 121.02734375 220.26171875 C119.74311778 219.85378741 118.45868287 219.44651341 117.17407227 219.03979492 C116.14263596 218.70967911 116.14263596 218.70967911 115.09036255 218.37289429 C79.31804831 206.98427134 42.30736502 198.34077045 5 194 C3.77506836 193.85534302 3.77506836 193.85534302 2.52539062 193.70776367 C-3.4932727 193.04615845 -9.44711505 192.81697037 -15.5 192.8125 C-16.80904297 192.79413086 -16.80904297 192.79413086 -18.14453125 192.77539062 C-26.47410952 192.75688045 -35.60440735 193.09637601 -42 199 C-43.49381107 201.87842219 -43.49381107 201.87842219 -43 205 C-35.33394695 213.73078264 -22.27120562 216.24458798 -11.47064209 219.13467407 C23.43954135 228.54326108 56.27633131 243.51081521 83.50048828 267.67236328 C84.96666777 268.97048833 86.44997837 270.24918243 87.93359375 271.52734375 C94.37643875 277.18382209 99.74688898 283.24075225 105 290 C105.77859375 290.928125 106.5571875 291.85625 107.359375 292.8125 C119.63537748 307.82519093 128.29979548 325.52419133 134 344 C134.20560547 344.66628418 134.41121094 345.33256836 134.62304688 346.01904297 C147.10419007 387.88550395 143.38117355 435.77187302 123.1640625 474.6015625 C101.20861382 514.30059827 68.64615483 543.27445924 25 557 C10.22065335 561.21282742 -4.1271922 562.80903296 -19.46166992 562.65185547 C-22.56617779 562.62496815 -25.6670821 562.65183891 -28.77148438 562.68359375 C-68.13189092 562.75054774 -104.61573664 545.83603082 -133 519 C-133.74894531 518.30390625 -134.49789062 517.6078125 -135.26953125 516.890625 C-161.16551985 492.03773227 -176.44056831 456.98903819 -177.3125 421.3125 C-176.95416318 398.64769637 -172.04460729 377.76951802 -161 358 C-160.18402344 356.52080078 -160.18402344 356.52080078 -159.3515625 355.01171875 C-149.56867971 338.52398214 -134.05234654 325.51208042 -117 317 C-116.34 317 -115.68 317 -115 317 C-115 316.34 -115 315.68 -115 315 C-115.99257812 314.8865625 -116.98515625 314.773125 -118.0078125 314.65625 C-132.85443715 312.51082707 -149.13247778 304.67575844 -160.8125 295.375 C-163.60359205 292.76595168 -163.60359205 292.76595168 -165.98046875 293.109375 C-175.66011563 297.37815544 -184.44226743 315.88453485 -189 325 C-189.99 325 -190.98 325 -192 325 C-192.38631592 324.2972998 -192.77263184 323.59459961 -193.1706543 322.87060547 C-199.97219882 310.51675921 -206.80190086 298.19122772 -214 286.0625 C-214.53278564 285.16047852 -215.06557129 284.25845703 -215.61450195 283.32910156 C-217.82385375 279.60171239 -220.04778539 275.89411048 -222.3984375 272.25390625 C-225.05871179 268.04268153 -226.89154561 265.12069541 -227.375 260.125 C-224.87273971 250.136811 -218.68472245 240.63770974 -212 233 C-211.25234375 232.13246094 -210.5046875 231.26492187 -209.734375 230.37109375 C-203.7203147 223.53059801 -203.7203147 223.53059801 -200.2265625 220.95703125 C-199.49179688 220.31121094 -198.75703125 219.66539062 -198 219 C-198 217.68 -198 216.36 -198 215 C-213.2405669 226.73465702 -224.64704828 240.70290592 -233 258 C-234.32 257.67 -235.64 257.34 -237 257 C-236.67 256.01 -236.34 255.02 -236 254 C-235.87622863 251.09635756 -235.80729915 248.21408976 -235.78222656 245.30932617 C-235.77060486 244.42119736 -235.75898315 243.53306854 -235.74700928 242.61802673 C-235.72179343 240.6880991 -235.69843552 238.75814651 -235.67670441 236.8281765 C-235.62792686 232.7247283 -235.56164516 228.62162537 -235.49621201 224.5184145 C-235.37437559 216.87725186 -235.25897391 209.23618516 -235.17675781 201.59448242 C-235.11890718 196.28024844 -235.0372367 190.96684238 -234.93981171 185.65319252 C-234.90714611 183.62915541 -234.88329897 181.60495587 -234.86847687 179.58070946 C-234.84665853 176.7458881 -234.79445812 173.91311249 -234.73535156 171.07885742 C-234.73619751 170.24487427 -234.73704346 169.41089111 -234.73791504 168.55163574 C-234.56980123 162.6749172 -233.20758473 160.12284614 -229 156 C-217.68583493 146.71295618 -203.36426263 141.57910869 -189.05078125 139.06640625 C-181.04318324 137.99008011 -181.04318324 137.99008011 -174.83984375 133.3125 C-173.56943868 130.5381335 -172.7629794 127.94211942 -172 125 C-172.60811523 124.9575415 -173.21623047 124.91508301 -173.84277344 124.87133789 C-184.6795238 124.04414154 -195.45855333 122.71088716 -206.25 121.4375 C-208.26690569 121.20098936 -210.28383262 120.96465975 -212.30078125 120.72851562 C-217.20076821 120.15443094 -222.10046113 119.57789596 -227 119 C-225.19974154 115.13869556 -222.71908292 112.3201969 -219.8125 109.25 C-218.80658908 108.17122762 -217.80137925 107.09180107 -216.796875 106.01171875 C-216.31154297 105.4914209 -215.82621094 104.97112305 -215.32617188 104.43505859 C-213.70049666 102.67590562 -212.12573605 100.8772468 -210.5625 99.0625 C-206.51394918 94.39555478 -202.30027403 89.8828967 -198.1015625 85.3515625 C-195.26288859 82.28790391 -192.44234299 79.20828687 -189.625 76.125 C-185.29305855 71.39580628 -180.93548347 66.69126665 -176.5625 62 C-175.97098145 61.36465332 -175.37946289 60.72930664 -174.77001953 60.07470703 C-173.1856527 58.37772256 -171.59411405 56.68782246 -170 55 C-169.26652344 54.21625 -168.53304687 53.4325 -167.77734375 52.625 C-163.66198862 48.8623896 -158.12453991 49.735246 -152.8828125 49.7890625 C-139.86325453 50.49636243 -127.30365133 54.87677512 -115.96484375 61.203125 C-115.300896 61.57348877 -114.63694824 61.94385254 -113.95288086 62.32543945 C-112.68599719 63.04686152 -111.42934775 63.7866799 -110.18579102 64.54760742 C-105.74604225 67.11498623 -102.93540411 67.21570616 -98 66 C-97.34 65.67 -96.68 65.34 -96 65 C-101.55813692 59.10040757 -107.65927136 54.03455507 -114 49 C-114.97839844 48.20464844 -115.95679688 47.40929687 -116.96484375 46.58984375 C-126.27797076 39.17927232 -136.33491447 32.33254276 -147 27 C-147 26.01 -147 25.02 -147 24 C-146.42022903 23.81509506 -145.84045807 23.63019012 -145.24311829 23.43968201 C-139.09197709 21.47761437 -132.94145656 19.51360983 -126.79125977 17.54858398 C-124.50983612 16.81991818 -122.22826561 16.09171204 -119.9465332 15.36401367 C-117.73007639 14.65706982 -115.51383844 13.94943944 -113.29782104 13.24111938 C-111.09031095 12.53573475 -108.88224013 11.83210251 -106.6736145 11.13021851 C-101.40587898 9.44831193 -96.16260636 7.72371439 -90.95068359 5.87548828 C-89.53048164 5.37819969 -89.53048164 5.37819969 -88.08158875 4.87086487 C-86.32628039 4.25227879 -84.57561784 3.62026299 -82.83113098 2.9717865 C-74.49475007 0.04911448 -67.98717727 1.57432887 -60 4.9375 C-59.27159912 5.24179932 -58.54319824 5.54609863 -57.79272461 5.85961914 C-45.79024321 11.07375886 -34.86340839 18.43485221 -25 27 C-24.19433594 27.69609375 -23.38867188 28.3921875 -22.55859375 29.109375 C-18.97355949 32.27363059 -15.53042202 35.40395876 -12.34765625 38.98046875 C-11.89318115 39.48215576 -11.43870605 39.98384277 -10.97045898 40.50073242 C-9.69914578 41.91737811 -8.46166298 43.3641737 -7.2265625 44.8125 C-2.44622651 48.05340575 2.33876473 47.89978099 8 48 C7.86424561 47.33693848 7.72849121 46.67387695 7.58862305 45.99072266 C3.01923108 23.60205563 3.01923108 23.60205563 1.1875 12.75 C1.00223755 11.67226318 1.00223755 11.67226318 0.81323242 10.57275391 C0.22660379 7.00133472 -0.04762246 3.61311181 0 0 Z M9 7 C9.57374907 15.98214063 11.03598544 24.76534564 12.58398438 33.61865234 C13.00388614 36.02224496 13.41647712 38.42701265 13.828125 40.83203125 C14.09332715 42.3672606 14.35893707 43.90241959 14.625 45.4375 C14.74794434 46.15309082 14.87088867 46.86868164 14.99755859 47.60595703 C15.50556276 50.49772693 16.06977092 53.20931277 17 56 C-6.02380613 57.25268736 -6.02380613 57.25268736 -11.91015625 52.42578125 C-14.48110424 49.75718155 -16.61475931 46.7810359 -18.71826172 43.73681641 C-20.79349709 40.92477366 -23.27877421 38.63690053 -25.875 36.3125 C-26.3695166 35.86616211 -26.8640332 35.41982422 -27.37353516 34.95996094 C-35.79603156 27.50772308 -44.907097 21.36970721 -54.8125 16.0625 C-55.4933667 15.69688965 -56.1742334 15.3312793 -56.87573242 14.95458984 C-60.32347699 13.1708855 -63.83881273 11.54788113 -67.44921875 10.12109375 C-68.43474731 9.72361938 -68.43474731 9.72361938 -69.44018555 9.31811523 C-77.08066402 8.36861181 -85.46333319 12.33202485 -92.59765625 14.6953125 C-93.67252792 15.04761932 -94.7473996 15.39992615 -95.85484314 15.76290894 C-99.25872686 16.87959996 -102.66062671 18.00220118 -106.0625 19.125 C-108.38203252 19.88711129 -110.70169274 20.64883404 -113.02148438 21.41015625 C-118.68247447 23.26894565 -124.34185138 25.1325802 -130 27 C-127.12467943 29.3128857 -124.23813921 31.59965598 -121.28515625 33.8125 C-108.78148753 43.23733866 -96.69046733 52.86235559 -85.890625 64.234375 C-84.18752681 66.22751114 -84.18752681 66.22751114 -82 66 C-81.67 67.32 -81.34 68.64 -81 70 C-82.051875 70.061875 -83.10375 70.12375 -84.1875 70.1875 C-89.47866028 70.80165253 -94.09557215 72.93484685 -98.94921875 75.0390625 C-102.37467214 76.11801453 -103.64759274 76.18890547 -107 75 C-109.50835004 73.65522995 -111.93721551 72.27339237 -114.375 70.8125 C-124.31666966 65.04566491 -135.43089946 59.29989894 -147 58 C-148.16402344 57.84789062 -149.32804687 57.69578125 -150.52734375 57.5390625 C-156.02814876 57.13240958 -160.23360555 56.82709532 -164.94140625 59.953125 C-167.51595575 62.51588267 -169.74927681 65.14908395 -172 68 C-176.55842348 73.35021616 -181.29929938 78.51622756 -186.125 83.625 C-187.43764051 85.0220034 -188.75013767 86.41914152 -190.0625 87.81640625 C-191.99791818 89.87421677 -193.93458537 91.93078655 -195.875 93.98388672 C-197.62863617 95.8400388 -199.3771656 97.7008862 -201.125 99.5625 C-201.64465332 100.10922363 -202.16430664 100.65594727 -202.69970703 101.21923828 C-205.23319904 103.92477284 -207.53945526 106.6661389 -209.67529297 109.69897461 C-210.11404755 110.31993515 -210.55280212 110.94089569 -211.00485229 111.58067322 C-211.33325104 112.04905106 -211.66164978 112.51742889 -212 113 C-210.89188965 113.14099121 -209.7837793 113.28198242 -208.64208984 113.42724609 C-204.46340452 113.95921399 -200.28490057 114.49259547 -196.10644531 115.02636719 C-194.31059475 115.25558372 -192.51469759 115.48443553 -190.71875 115.71289062 C-180.13299352 117.05973911 -169.55779415 118.44654309 -159 120 C-159.29245605 120.47832275 -159.58491211 120.95664551 -159.88623047 121.44946289 C-161.2243312 123.64875697 -162.54969045 125.85547625 -163.875 128.0625 C-164.33519531 128.81466797 -164.79539063 129.56683594 -165.26953125 130.34179688 C-167.95966796 134.8448518 -169.81774225 138.88367766 -171 144 C-171.61020996 144.04753418 -172.22041992 144.09506836 -172.84912109 144.14404297 C-190.51196425 145.69009149 -213.28358829 150.65602511 -226 164 C-227.10154467 167.30463401 -227.15818717 169.82610919 -227.20532227 173.30737305 C-227.22526749 174.60849533 -227.24521271 175.90961761 -227.26576233 177.25016785 C-227.28274546 178.6706836 -227.29962431 180.0912006 -227.31640625 181.51171875 C-227.33698137 182.96475306 -227.35797799 184.41778146 -227.37937927 185.87080383 C-227.43454234 189.6929953 -227.48397698 193.51524026 -227.53222656 197.33752441 C-227.58248372 201.23873652 -227.63814778 205.13987105 -227.69335938 209.04101562 C-227.80087041 216.69394469 -227.90233098 224.34693833 -228 232 C-225.47321385 229.49142023 -223.05795582 226.9612879 -220.75 224.25 C-214.93167515 217.61098511 -209.05416573 211.83979528 -201.875 206.6875 C-201.28904053 206.26678223 -200.70308105 205.84606445 -200.09936523 205.41259766 C-196.5392102 202.91873289 -192.94686509 200.85346704 -189 199 C-189.165 200.03125 -189.33 201.0625 -189.5 202.125 C-189.92206163 204.99807016 -189.96123653 207.35568675 -189.64453125 210.26171875 C-189.12157775 215.85424497 -188.80537649 219.48276948 -192.38671875 224.03125 C-194.94685715 226.44535704 -197.69564115 228.61644602 -200.47412109 230.77246094 C-208.74874596 237.42923115 -215.85238061 247.86135228 -219 258 C-218.46804361 261.42258731 -216.98313037 264.08784739 -215.296875 267.0859375 C-214.73436035 268.08955322 -214.1718457 269.09316895 -213.59228516 270.12719727 C-212.98433105 271.19897217 -212.37637695 272.27074707 -211.75 273.375 C-210.8206665 275.02423462 -210.8206665 275.02423462 -209.87255859 276.70678711 C-203.73227609 287.56001258 -197.40338373 298.3003289 -191 309 C-187.12114256 305.34200277 -184.12181991 301.52041485 -181.125 297.125 C-171.80874972 283.81061959 -171.80874972 283.81061959 -164 281 C-163.36835938 281.556875 -162.73671875 282.11375 -162.0859375 282.6875 C-142.97745255 298.98753327 -116.03202737 310.41139764 -90.5625 310.0625 C-89.69753906 310.05347656 -88.83257812 310.04445313 -87.94140625 310.03515625 C-87.30074219 310.02355469 -86.66007813 310.01195312 -86 310 C-86 310.66 -86 311.32 -86 312 C-86.51304687 312.12375 -87.02609375 312.2475 -87.5546875 312.375 C-105.74327395 317.27428254 -122.96002076 326.52944442 -137 339 C-138.15628906 340.01320313 -138.15628906 340.01320313 -139.3359375 341.046875 C-158.66724432 359.08942804 -168.34042773 386.72194948 -169.37109375 412.65625 C-170.0102724 448.28788267 -157.79502272 478.58602823 -134 505 C-132.83333333 506.41666667 -131.66666667 507.83333333 -130.5 509.25 C-107.89220505 534.79734276 -70.6876091 551.51813539 -37 554 C1.48009973 555.56635835 37.55006114 548.33631827 69 525 C69.88429688 524.34515625 70.76859375 523.6903125 71.6796875 523.015625 C105.40410955 496.94115172 126.79991588 460.02000069 132.78515625 417.8125 C136.74904862 385.55419796 131.33492668 352.16416118 117 323 C116.45601563 321.88367188 115.91203125 320.76734375 115.3515625 319.6171875 C108.80261359 306.8574983 100.36104996 295.73823306 90.41210938 285.46337891 C89.00384884 284.00398858 87.61900457 282.52475675 86.234375 281.04296875 C70.00188252 263.95274139 50.15042159 251.99913941 29 242 C28.38108887 241.70383789 27.76217773 241.40767578 27.12451172 241.10253906 C11.32767276 233.61125461 -5.41709281 228.47481402 -22.25 223.875 C-30.0863576 221.72872251 -36.91541019 219.03444908 -44 215 C-44.73734375 214.65324219 -45.4746875 214.30648437 -46.234375 213.94921875 C-49.38814671 212.25371759 -49.91585599 209.25243202 -51 206 C-51.78467455 200.28308543 -50.4030127 197.38712034 -47.19140625 192.89453125 C-41.4861275 187.96216014 -34.4140345 186.27556482 -27.0625 185.625 C-26.20390381 185.54830078 -25.34530762 185.47160156 -24.46069336 185.39257812 C24.62093002 181.8614632 77.58909191 198.97761128 124 213 C124.65388085 211.41706893 125.30262532 209.83201552 125.94921875 208.24609375 C126.49195435 206.92242798 126.49195435 206.92242798 127.0456543 205.57202148 C128.67334751 201.18528627 129.5153072 197.5459216 128 193 C125.59993321 191.78570538 125.59993321 191.78570538 122.5625 190.828125 C121.3765625 190.41812256 120.190625 190.00812012 118.96875 189.58569336 C118.32421875 189.36879852 117.6796875 189.15190369 117.015625 188.92843628 C113.52322531 187.75293456 110.04396278 186.53945647 106.5625 185.33203125 C105.81162109 185.07285416 105.06074219 184.81367706 104.28710938 184.54664612 C93.56348755 180.83275358 82.92990777 176.86735846 72.28515625 172.93444824 C69.71169971 171.98416352 67.13716103 171.03685919 64.5625 170.08984375 C63.41890015 169.66550301 63.41890015 169.66550301 62.25219727 169.23258972 C57.87517553 167.62429824 53.49995696 166.22466714 49 165 C50.42069802 161.84630878 51.86429577 158.70364374 53.3125 155.5625 C53.91868164 154.21575195 53.91868164 154.21575195 54.53710938 152.84179688 C54.93349609 151.98779297 55.32988281 151.13378906 55.73828125 150.25390625 C56.09962158 149.46314697 56.46096191 148.6723877 56.83325195 147.85766602 C58 146 58 146 61 145 C63.74536133 145.49389648 63.74536133 145.49389648 67.08203125 146.37109375 C68.31356934 146.69400391 69.54510742 147.01691406 70.81396484 147.34960938 C72.14713891 147.7110281 73.47997754 148.07368617 74.8125 148.4375 C75.8215036 148.71001587 75.8215036 148.71001587 76.85089111 148.98803711 C135.62146772 164.92286047 135.62146772 164.92286047 149.56640625 186.4140625 C154.32391191 195.17004158 154.77728223 202.52680444 152 212 C151.67 212.99 151.34 213.98 151 215 C165.34916772 213.12622552 176.42222808 209.07314002 185.8125 197.625 C192.88234139 188.02904359 194.88789418 178.78362417 194 167 C188.11242212 135.46953773 162.59548346 111.85410805 137.37475586 94.28881836 C108.3181114 72.95746937 108.3181114 72.95746937 76 62 C75.40251953 60.13021484 75.40251953 60.13021484 74.79296875 58.22265625 C72.88889913 52.51936053 70.63011399 46.98342544 68.3125 41.4375 C67.87478271 40.38916992 67.43706543 39.34083984 66.98608398 38.26074219 C64.34460767 32.00479066 61.59646325 25.82586693 58.5625 19.75 C58.24514893 19.11376709 57.92779785 18.47753418 57.60083008 17.82202148 C56.76814677 16.19666837 55.88637665 14.5967062 55 13 C54.61714844 12.22140625 54.23429687 11.4428125 53.83984375 10.640625 C50.72490632 7.86297379 46.99169977 8.15654998 43 8 C41.70690918 7.9469873 40.41381836 7.89397461 39.08154297 7.83935547 C34.53434904 7.67087898 29.98629488 7.55292773 25.4375 7.4375 C23.84048545 7.39422355 22.24348009 7.35060663 20.64648438 7.30664062 C16.76441777 7.20049931 12.88225568 7.09897381 9 7 Z "
     fill="#221E1F"
     transform="translate(251,19)"
     id="path2"
     style="fill:#ffffff" />
  <path
     d="M0 0 C1.04027344 0.43570312 2.08054687 0.87140625 3.15234375 1.3203125 C19.45847999 8.84622153 32.9070108 22.6731003 39.35546875 39.546875 C45.42304309 58.91054185 45.25958088 79.58836379 35.96606445 97.84838867 C27.72825798 113.07764456 13.76098313 125.77366263 -2.765625 131.35546875 C-22.14096447 137.06501027 -41.73292856 135.90489649 -60 127 C-63.53939117 124.89549714 -66.77852733 122.56051535 -70 120 C-70.68578125 119.47792969 -71.3715625 118.95585937 -72.078125 118.41796875 C-86.1310651 107.04836564 -93.54774979 90.59977805 -96 73 C-97.20985961 53.99925393 -93.41341511 36.22220818 -80.95703125 21.21484375 C-80.31121094 20.48394531 -79.66539062 19.75304687 -79 19 C-78.28199219 18.17628906 -77.56398437 17.35257812 -76.82421875 16.50390625 C-57.84184665 -3.90758061 -25.85348951 -10.85374657 0 0 Z M-73.64453125 23.203125 C-86.27907346 38.20533433 -90.17560119 54.82553925 -89 74 C-87.1733202 88.09392394 -80.05555844 100.21759765 -70 110 C-69.31292969 110.70769531 -68.62585938 111.41539062 -67.91796875 112.14453125 C-56.71639001 123.01359559 -42.07229804 127.92144807 -26.6875 128.4375 C-9.23906985 128.00623087 5.94283671 121.78859118 18.5703125 109.58203125 C29.98715263 97.44934423 36.90122383 81.49940977 37.0234375 64.796875 C36.21843478 47.25628944 29.3449752 31.47414534 17 19 C-10.70765953 -3.61563085 -48.22667811 -3.46743632 -73.64453125 23.203125 Z "
     fill="#221E1F"
     transform="translate(253,359)"
     id="path3"
     style="fill:#ffffff" />
  <path
     d="M0 0 C1.16865806 0.70628576 2.33380343 1.41842103 3.49511719 2.13671875 C8.92603013 5.42799225 14.37452911 6.916126 20.58349609 8.0078125 C20.58349609 8.6678125 20.58349609 9.3278125 20.58349609 10.0078125 C16.66719772 11.1549072 12.75039477 12.30026947 8.83349609 13.4453125 C7.72232422 13.77080078 6.61115234 14.09628906 5.46630859 14.43164062 C4.39638672 14.74423828 3.32646484 15.05683594 2.22412109 15.37890625 C1.23959961 15.66693115 0.25507813 15.95495605 -0.75927734 16.25170898 C-20.83343877 21.96373378 -39.84275799 16.50904103 -57.66308594 6.94091797 C-60.22226135 5.5790176 -62.81816253 4.29297056 -65.41650391 3.0078125 C-65.41650391 2.3478125 -65.41650391 1.6878125 -65.41650391 1.0078125 C-64.38912109 0.76546875 -63.36173828 0.523125 -62.30322266 0.2734375 C-60.90316139 -0.06377134 -59.50344569 -0.40241693 -58.10400391 -0.7421875 C-57.36778809 -0.91975586 -56.63157227 -1.09732422 -55.87304688 -1.28027344 C-51.7452456 -2.30703581 -47.94724301 -3.53075253 -44.04150391 -5.2421875 C-30.20675165 -10.47695862 -12.42212329 -7.27016843 0 0 Z M-43.41650391 4.0078125 C-43.41650391 5.3278125 -43.41650391 6.6478125 -43.41650391 8.0078125 C-42.36462891 8.4821875 -41.31275391 8.9565625 -40.22900391 9.4453125 C-39.63732422 9.71214844 -39.04564453 9.97898437 -38.43603516 10.25390625 C-29.58973064 13.55629846 -18.28829153 13.05114921 -9.41650391 10.0078125 C-6.47544015 8.53162648 -6.47544015 8.53162648 -4.41650391 7.0078125 C-5.37158066 4.56200748 -5.94820268 3.27203298 -8.27197266 1.9609375 C-18.9523564 -1.2592787 -33.73279174 -2.44799561 -43.41650391 4.0078125 Z "
     fill="#221E1F"
     transform="translate(296.41650390625,112.9921875)"
     id="path4"
     style="fill:#ffffff" />
  <path
     d="M0 0 C4.98669007 2.49334503 8.49675474 5.99350949 11 11 C11.52113171 16.22840334 11.64273534 20.64036754 9.375 25.4375 C5.14106732 30.00569052 0.95819452 32.77674004 -5.3125 33.25 C-11.00655088 32.86396265 -14.42323748 30.86844519 -18.3125 26.8125 C-21.32947625 23.02540086 -22.37493353 19.82950095 -22 15 C-21.13471167 10.12663084 -19.80424554 6.29195312 -16 3 C-10.83913969 -0.44057354 -6.04944768 -0.67950114 0 0 Z "
     fill="#221E1F"
     transform="translate(133,205)"
     id="path5"
     style="fill:#ffffff" />
  <path
     d="M0 0 C4.42977671 2.1357852 7.19613671 4.39012714 9 9 C9.68829606 14.0729969 9.59408188 17.83305346 7.25 22.4375 C4.13373211 25.98658287 2.36142589 27.63346226 -2.25 28.875 C-8.46362349 29.08212078 -12.35944916 27.50092949 -16.9375 23.3125 C-19.36756338 19.40967094 -20.29276172 16.57772877 -20 12 C-18.6776382 7.41062668 -16.82733456 3.81963759 -12.9375 0.8828125 C-8.78488413 -1.00930683 -4.42037154 -0.71041685 0 0 Z "
     fill="#221E1F"
     transform="translate(158,271)"
     id="path6"
     style="fill:#ffffff" />
  <path
     d="M0 0 C3.30914875 2.12378204 6.22409336 4.44818673 8 8 C8.52657873 13.28305214 8.64191122 17.66862857 6.3125 22.5 C2.6611262 26.44743114 0.01198344 28.15397456 -5.375 28.4375 C-11.16409214 28.22523329 -14.9334805 26.19984334 -18.9375 21.9375 C-21.0649094 16.05583872 -20.98255886 10.20093185 -18.4375 4.5 C-13.1755522 -0.89686954 -7.08531495 -2.29524287 0 0 Z "
     fill="#221E1F"
     transform="translate(271,514)"
     id="path7"
     style="fill:#ffffff" />
  <path
     d="M0 0 C3.7647859 2.45148849 5.2764566 4.51686981 6.6875 8.75 C7.05938362 13.77042893 6.82472452 16.74733424 3.6875 20.75 C0.15376222 24.49160471 -3.02725866 25.56378311 -8.03125 25.9140625 C-12.88461865 25.56501886 -16.04648379 23.17937314 -19.25 19.5625 C-20.76847309 15.5430124 -20.9856919 11.99110897 -20.3125 7.75 C-15.96487628 -0.94524744 -8.94702053 -3.37623416 0 0 Z "
     fill="#221F20"
     transform="translate(344.3125,443.25)"
     id="path8"
     style="fill:#ffffff" />
  <path
     d="M0 0 C3.50745952 2.04601805 5.73959779 4.10421136 7 8 C7.52055293 11.99090581 7.16996586 13.69523363 5.1875 17.25 C3.01936104 19.97566041 1.46283303 21.73529688 -2.05078125 22.37109375 C-6.31020603 22.49615458 -9.12290024 22.39700198 -12.5 19.625 C-15.95233913 16.00004392 -16.2863903 14.05193617 -16.22265625 9.03515625 C-15.90143435 6.09907538 -14.81916075 4.29079502 -13 2 C-8.7567553 -0.8288298 -4.98265471 -0.65268001 0 0 Z "
     fill="#231E20"
     transform="translate(206,521)"
     id="path9"
     style="fill:#ffffff" />
  <path
     d="M0 0 C3.42743896 2.72796162 4.59500715 4.20229793 5.54296875 8.41015625 C5.83851429 12.10726368 5.7724795 14.82266679 3.703125 17.9765625 C0.76197515 20.82327176 -1.94905442 22.37839715 -6.0625 22.6875 C-11.00169449 21.82510096 -12.54586416 20.53838305 -16 17 C-17.74348951 13.51302098 -17.58082725 9.80409937 -17 6 C-13.17074885 -1.15582069 -7.30328122 -2.02087291 0 0 Z "
     fill="#221E1F"
     transform="translate(155,493)"
     id="path10"
     style="fill:#ffffff" />
  <path
     d="M0 0 C3.00332418 1.80199451 4.5903952 3.3111192 6.375 6.3125 C7.23030472 9.99031032 7.04002166 12.35992419 6 16 C3.41750498 18.96042112 1.8198118 20.59480753 -2 21.4453125 C-5.69219084 21.65509607 -7.83086651 21.10795755 -10.9375 19.125 C-14.3215355 15.63841797 -14.38966392 12.96407286 -14.359375 8.26171875 C-13.78943134 4.67479071 -11.79773951 3.13161106 -9 1 C-5.89951072 -0.55024464 -3.42105782 -0.28992015 0 0 Z "
     fill="#221E1F"
     transform="translate(124,449)"
     id="path11"
     style="fill:#ffffff" />
  <path
     d="M0 0 C3.51580725 2.05641556 5.37917556 3.29430052 6.7734375 7.125 C7.36295256 10.417386 7.60165277 12.86955086 6 15.87890625 C4.23636792 18.05720183 2.51777432 19.74111284 0 21 C-7.75862069 21.43103448 -7.75862069 21.43103448 -11 19 C-13.29088372 16.13639535 -13.96980455 14.20759371 -14.5 10.5625 C-13.83270551 5.80802675 -12.40702151 4.32778845 -9 1 C-5.61670875 -0.12776375 -3.54843366 -0.41746278 0 0 Z "
     fill="#221E1F"
     transform="translate(226,283)"
     id="path12"
     style="fill:#ffffff" />
  <path
     d="M0 0 C3.90669429 1.43828546 6.19713709 2.88570788 9 6 C7.32770299 9.95969176 4.63695006 13.0161201 1.875 16.25 C1.40707031 16.80429688 0.93914062 17.35859375 0.45703125 17.9296875 C-0.69175328 19.28947326 -1.84539653 20.64515165 -3 22 C-6.86142204 21.21616433 -9.01328244 19.57189568 -12 17 C-11.41246271 13.9249292 -10.54526011 12.12098863 -8.49609375 9.765625 C-7.75649414 8.90517578 -7.75649414 8.90517578 -7.00195312 8.02734375 C-6.48568359 7.44082031 -5.96941406 6.85429687 -5.4375 6.25 C-4.91736328 5.64800781 -4.39722656 5.04601562 -3.86132812 4.42578125 C-2.58043726 2.94511841 -1.29103688 1.47182458 0 0 Z "
     fill="#221E1F"
     transform="translate(139,132)"
     id="path13"
     style="fill:#ffffff" />
  <path
     d="M0 0 C2.9453427 0.89996583 3.75237845 1.57550592 5.3125 4.25 C6.16499882 7.65999529 6.07036655 9.64618481 5 13 C2.40418092 15.81831785 0.76991795 16.85564038 -3 17.5625 C-7.13607554 16.78698584 -8.54999553 15.38677089 -11 12 C-11.625 8.5 -11.625 8.5 -11 5 C-7.76968443 0.53456377 -5.48257884 -0.81655429 0 0 Z "
     fill="#221E1F"
     transform="translate(123,410)"
     id="path14"
     style="fill:#ffffff" />
  <path
     d="M0 0 C2 3 2 3 1.75 6.0625 C1 9 1 9 -1 11 C-7.05240175 11.55021834 -7.05240175 11.55021834 -9.9375 9.875 C-11.48724515 7.14015561 -11.32162076 5.0875593 -11 2 C-7.67085721 -2.99371418 -5.0918279 -2.16673528 0 0 Z "
     fill="#221E1F"
     transform="translate(135,378)"
     id="path15"
     style="fill:#ffffff" />
  <path
     d="M0 0 C3.0625 0.375 3.0625 0.375 5.0625 2.0625 C6.0625 4.375 6.0625 4.375 5.3125 7.0625 C4.0625 9.375 4.0625 9.375 3.0625 10.375 C0.125 10.5625 0.125 10.5625 -2.9375 10.375 C-4.9375 8.375 -4.9375 8.375 -5.1875 5.375 C-4.8467171 1.28560516 -4.06103243 0.51842967 0 0 Z "
     fill="#221F1F"
     transform="translate(151.9375,353.625)"
     id="path16"
     style="fill:#ffffff" />
</svg>
